<svg width="6" height="7" viewBox="0 0 6 7" fill="none" xmlns="http://www.w3.org/2000/svg">
<g clip-path="url(#clip0)">
<path d="M2.55134 0.895983L2.84866 0.598662C2.97455 0.472769 3.17813 0.472769 3.30268 0.598662L5.90625 3.20089C6.03214 3.32679 6.03214 3.53036 5.90625 3.65491L3.30268 6.25848C3.17679 6.38438 2.97321 6.38438 2.84866 6.25848L2.55134 5.96116C2.42411 5.83393 2.42679 5.62634 2.5567 5.50179L4.17054 3.96429H0.321429C0.143304 3.96429 0 3.82098 0 3.64286V3.21429C0 3.03616 0.143304 2.89286 0.321429 2.89286H4.17054L2.5567 1.35536C2.42545 1.2308 2.42277 1.02322 2.55134 0.895983Z" fill="white"/>
</g>
<defs>
<clipPath id="clip0">
<rect width="6" height="6.85714" fill="white"/>
</clipPath>
</defs>
</svg>
