<svg width="7" height="9" viewBox="0 0 7 9" fill="none" xmlns="http://www.w3.org/2000/svg">
<path d="M3.11312 8.99982C3.04669 9.00012 2.982 8.97855 2.92903 8.93845L0.126816 6.84395C0.0886359 6.81516 0.0574166 6.77815 0.0354659 6.73566C0.0135152 6.69318 0.00139448 6.6463 0 6.5985V2.40541C0.000781745 2.35691 0.0126094 2.30923 0.034584 2.26599C0.0565585 2.22275 0.0881015 2.18509 0.126816 2.15587L2.9413 0.0613624C2.99441 0.0215314 3.05901 0 3.12539 0C3.19178 0 3.25637 0.0215314 3.30948 0.0613624L6.11169 2.15587C6.14988 2.18529 6.18081 2.2231 6.20208 2.26636C6.22336 2.30962 6.23442 2.35719 6.23442 2.40541V6.5985C6.2338 6.64602 6.22244 6.69279 6.20119 6.73529C6.17994 6.7778 6.14934 6.81495 6.11169 6.84395L3.30948 8.93845C3.25288 8.9806 3.18364 9.00224 3.11312 8.99982ZM0.613624 6.44305L3.11312 8.30847L5.60852 6.44305V2.55677L3.11312 0.69135L0.613624 2.55677V6.44305Z" fill="#D1CCCC"/>
<path d="M3.113 6.68034C3.04656 6.68064 2.98188 6.65908 2.92891 6.61898L1.67302 5.68218C1.63468 5.65382 1.60358 5.61681 1.58225 5.57416C1.56093 5.5315 1.54998 5.48442 1.5503 5.43673V3.56313C1.54998 3.51544 1.56093 3.46835 1.58225 3.4257C1.60358 3.38305 1.63468 3.34603 1.67302 3.31768L2.94118 2.38088C2.99429 2.34105 3.05888 2.31952 3.12527 2.31952C3.19165 2.31952 3.25625 2.34105 3.30935 2.38088L4.56115 3.31768C4.59949 3.34603 4.63059 3.38305 4.65192 3.4257C4.67325 3.46835 4.6842 3.51544 4.68387 3.56313V5.43673C4.6842 5.48442 4.67325 5.5315 4.65192 5.57416C4.63059 5.61681 4.59949 5.65382 4.56115 5.68218L3.30935 6.61898C3.25276 6.66112 3.18352 6.68276 3.113 6.68034ZM2.16392 5.28537L3.113 5.99308L4.05798 5.28537V3.71449L3.113 3.00678L2.16392 3.71449V5.28537Z" fill="#D1CCCC"/>
</svg>
