<svg width="9" height="9" viewBox="0 0 9 9" fill="none" xmlns="http://www.w3.org/2000/svg">
<path d="M3.58116 7.46625C3.41424 7.46505 3.25428 7.39919 3.13491 7.2825L0.809913 4.95375C0.783379 4.9279 0.762291 4.89699 0.747892 4.86286C0.733492 4.82872 0.726074 4.79205 0.726074 4.755C0.726074 4.71795 0.733492 4.68128 0.747892 4.64715C0.762291 4.61301 0.783379 4.58211 0.809913 4.55625L1.71366 3.64875C1.83507 3.52898 1.99875 3.46183 2.16929 3.46183C2.33983 3.46183 2.50351 3.52898 2.62491 3.64875L3.66741 4.695C3.68 4.70714 3.6968 4.71393 3.71429 4.71393C3.73178 4.71393 3.74858 4.70714 3.76116 4.695L6.51741 1.93875C6.63749 1.82369 6.79736 1.75946 6.96366 1.75946C7.12996 1.75946 7.28984 1.82369 7.40991 1.93875L7.95366 2.4825C8.07114 2.60056 8.13709 2.76033 8.13709 2.92688C8.13709 3.09342 8.07114 3.25319 7.95366 3.37125L4.02741 7.2825C3.90804 7.39919 3.74809 7.46505 3.58116 7.46625ZM1.40616 4.755L3.53241 6.88125C3.545 6.89339 3.5618 6.90018 3.57929 6.90018C3.59678 6.90018 3.61358 6.89339 3.62616 6.88125L7.53741 2.97375C7.54956 2.96117 7.55634 2.94436 7.55634 2.92688C7.55634 2.90939 7.54956 2.89258 7.53741 2.88L6.99366 2.33625C6.98046 2.32386 6.96302 2.31696 6.94491 2.31696C6.9268 2.31696 6.90937 2.32386 6.89616 2.33625L4.12491 5.0925C4.00503 5.20646 3.84594 5.27 3.68054 5.27C3.51513 5.27 3.35605 5.20646 3.23616 5.0925L2.20866 4.04625C2.20311 4.03851 2.19579 4.0322 2.18731 4.02785C2.17883 4.0235 2.16944 4.02123 2.15991 4.02123C2.15038 4.02123 2.14099 4.0235 2.13251 4.02785C2.12404 4.0322 2.11672 4.03851 2.11116 4.04625L1.40616 4.755Z" fill="#41E95C"/>
</svg>
