<svg width="9" height="9" viewBox="0 0 9 9" fill="none" xmlns="http://www.w3.org/2000/svg">
<path d="M4.52642 7.79627C4.48554 7.79618 4.44517 7.78706 4.40822 7.76956C4.37127 7.75205 4.33864 7.7266 4.31267 7.69502L0.562673 3.19502C0.515767 3.14384 0.489746 3.07694 0.489746 3.00752C0.489746 2.9381 0.515767 2.8712 0.562673 2.82002L2.02517 1.29002C2.0541 1.26008 2.08924 1.23685 2.12811 1.22195C2.16698 1.20705 2.20865 1.20084 2.25017 1.20377H6.75017C6.82474 1.20384 6.89623 1.23351 6.94892 1.28627L8.42642 2.76377C8.47519 2.81299 8.50408 2.87848 8.50754 2.94768C8.511 3.01689 8.48879 3.08493 8.44517 3.13877L4.74767 7.69127C4.72149 7.72383 4.68839 7.75014 4.65077 7.76831C4.61315 7.78647 4.57195 7.79602 4.53017 7.79627H4.52642ZM1.15142 3.02627L4.52642 7.07252L7.84517 3.00002L6.63017 1.76627H2.35142L1.15142 3.02627Z" fill="#D1CCCC"/>
</svg>
