<svg width="9" height="9" viewBox="0 0 9 9" fill="none" xmlns="http://www.w3.org/2000/svg">
<rect width="9" height="9" fill="white"/>
<path d="M3.8438 4.62375C3.79841 4.62321 3.75367 4.61299 3.71255 4.59375L2.79005 4.125L1.87505 4.59375C1.82829 4.61868 1.77545 4.62989 1.7226 4.6261C1.66975 4.62231 1.61904 4.60366 1.57633 4.57231C1.53361 4.54096 1.50062 4.49818 1.48115 4.44889C1.46169 4.39961 1.45654 4.34583 1.4663 4.29375L1.64255 3.27L0.892552 2.5425C0.853909 2.50567 0.82639 2.45872 0.81313 2.407C0.79987 2.35529 0.801402 2.30089 0.817552 2.25C0.833923 2.19989 0.864051 2.15539 0.904497 2.12157C0.944943 2.08776 0.99408 2.06599 1.0463 2.05875L2.07755 1.90875L2.53505 0.978754C2.56148 0.935297 2.59865 0.899376 2.64298 0.874448C2.68731 0.84952 2.73732 0.836426 2.78818 0.836426C2.83904 0.836426 2.88904 0.84952 2.93337 0.874448C2.97771 0.899376 3.01488 0.935297 3.0413 0.978754L3.50255 1.9125L4.5338 2.0625C4.58562 2.07034 4.63421 2.09249 4.67411 2.12647C4.71401 2.16045 4.74362 2.20489 4.75961 2.2548C4.77559 2.30471 4.77732 2.35809 4.76458 2.40892C4.75185 2.45976 4.72517 2.50602 4.68755 2.5425L3.93755 3.27L4.12505 4.29375C4.13474 4.34555 4.12968 4.39903 4.11046 4.44809C4.09123 4.49716 4.0586 4.53983 4.0163 4.57125C3.96565 4.60625 3.90536 4.6246 3.8438 4.62375ZM1.6913 2.535L2.1338 2.97C2.16679 3.00134 2.19156 3.0403 2.20595 3.08345C2.22034 3.12661 2.22389 3.17265 2.2163 3.2175L2.1113 3.82875L2.6588 3.54C2.69953 3.51955 2.74448 3.5089 2.79005 3.5089C2.83563 3.5089 2.88057 3.51955 2.9213 3.54L3.4688 3.82875L3.37505 3.2175C3.36746 3.17265 3.37102 3.12661 3.3854 3.08345C3.39979 3.0403 3.42457 3.00134 3.45755 2.97L3.90005 2.535L3.2738 2.44875C3.2291 2.44164 3.18674 2.42399 3.15023 2.39725C3.11371 2.37051 3.08408 2.33547 3.0638 2.295L2.79005 1.73625L2.5163 2.295C2.49566 2.33593 2.46546 2.37128 2.42825 2.39804C2.39104 2.42481 2.34792 2.4422 2.30255 2.44875L1.6913 2.535Z" fill="#D1CCCC"/>
<path d="M4.62389 8.17874C4.56488 8.17806 4.50743 8.15978 4.45889 8.12624C4.41623 8.09498 4.38312 8.05247 4.36326 8.00346C4.34339 7.95445 4.33755 7.90088 4.34639 7.84874L4.56389 6.59624L3.65264 5.70749C3.61419 5.67135 3.58702 5.62486 3.57438 5.57364C3.56174 5.52241 3.56417 5.46862 3.58139 5.41874C3.59747 5.36914 3.62703 5.32499 3.66677 5.29121C3.7065 5.25744 3.75484 5.23538 3.80639 5.22749L5.06639 5.04749L5.62514 3.90374C5.65156 3.86029 5.68873 3.82436 5.73306 3.79944C5.7774 3.77451 5.8274 3.76141 5.87826 3.76141C5.92912 3.76141 5.97913 3.77451 6.02346 3.79944C6.06779 3.82436 6.10496 3.86029 6.13139 3.90374L6.69389 5.04749L7.95014 5.22749C8.00226 5.23475 8.0513 5.25648 8.09169 5.29023C8.13207 5.32397 8.16218 5.36837 8.17859 5.41837C8.195 5.46837 8.19705 5.52198 8.1845 5.57309C8.17196 5.6242 8.14533 5.67077 8.10764 5.70749L7.20014 6.59624L7.41389 7.84874C7.42313 7.90053 7.41787 7.95386 7.39868 8.00284C7.37948 8.05182 7.34711 8.09453 7.30514 8.12624C7.26096 8.15467 7.20954 8.16978 7.15701 8.16978C7.10448 8.16978 7.05306 8.15467 7.00889 8.12624L5.88389 7.53749L4.75889 8.12624C4.71942 8.15555 4.67278 8.17368 4.62389 8.17874ZM4.45139 5.70374L5.06264 6.29624C5.09474 6.32888 5.11862 6.36868 5.13232 6.41237C5.14601 6.45605 5.14912 6.50237 5.14139 6.54749L4.99889 7.38374L5.74889 6.98624C5.78961 6.96579 5.83456 6.95514 5.88014 6.95514C5.92571 6.95514 5.97066 6.96579 6.01139 6.98624L6.76139 7.38374L6.61889 6.54749C6.60948 6.50237 6.61177 6.4556 6.62556 6.41162C6.63934 6.36764 6.66416 6.32792 6.69764 6.29624L7.30514 5.70374L6.46514 5.57999C6.42001 5.57414 6.3771 5.55697 6.34039 5.53009C6.30367 5.50321 6.27435 5.46749 6.25514 5.42624L5.88014 4.67624L5.50514 5.42624C5.48592 5.46749 5.4566 5.50321 5.41988 5.53009C5.38317 5.55697 5.34026 5.57414 5.29514 5.57999L4.45139 5.70374Z" fill="#D1CCCC"/>
</svg>
