<svg width="16" height="29" viewBox="0 0 16 29" fill="none" xmlns="http://www.w3.org/2000/svg">
<path d="M6.30505 0.929578L7.80546 0L8.44025 0.394366L11.4411 2.22535L14.0091 5.46479L15.4806 8.53521L16 17.6338C15.1729 19.5399 13.4435 23.5042 13.1435 24.1127C12.8434 24.7211 10.1138 27.5211 8.78649 28.8451L7.54577 28.338L5.81453 26.5916L3.27538 22.7606C2.28472 21.0329 0.251473 17.4986 0.0437238 17.1831C-0.164025 16.8676 0.418826 11.4366 0.73622 8.76056L1.08247 6.61972L6.30505 0.929578Z" fill="url(#paint0_linear)"/>
<path d="M6.31704 1.03499L7.80689 0.112671L8.4372 0.503956L11.4169 2.32064L13.9668 5.53477L15.428 8.5812L15.9437 17.6087C15.1224 19.4999 13.4053 23.4333 13.1073 24.037C12.8093 24.6407 10.099 27.4188 8.78101 28.7324L7.54903 28.2293L5.82998 26.4965L3.30871 22.6954C2.32503 20.9812 0.306098 17.4746 0.0998123 17.1615C-0.106474 16.8485 0.472273 11.4599 0.787432 8.80479L1.13124 6.68067L6.31704 1.03499Z" fill="url(#paint1_linear)" style="mix-blend-mode:darken"/>
<path opacity="0.32" d="M6.62857 1.37204L7.76595 0.450684L9.13652 0.971448L11.835 3.2548L13.7163 6.21399L14.7874 7.78145L15.5493 16.9961C14.7878 18.6849 13.1957 22.1974 12.9194 22.7365C12.6431 23.2756 10.1302 25.7565 8.90822 26.9296L7.76595 26.4803L6.1721 24.9329L3.83445 21.5385C2.92241 20.0077 1.05052 16.8763 0.859261 16.5967C0.667998 16.3172 0.567055 12.3557 0.859261 9.98468L1.23171 8.93447L6.62857 1.37204Z" fill="url(#paint2_linear)"/>
<path opacity="0.8" d="M6.71092 10.6636L7.85207 10.0845L8.33487 10.3302L10.6172 11.471L12.5703 13.4893L13.6895 15.4023L14.0845 21.0712C13.4554 22.2588 12.1402 24.7287 11.912 25.1078C11.6837 25.4869 9.6077 27.2314 8.59821 28.0563L7.65456 27.7404L6.33785 26.6523L4.40666 24.2654C3.6532 23.1889 2.10679 20.9869 1.94878 20.7903C1.79078 20.5938 2.23407 17.21 2.47547 15.5427L2.73881 14.2089L6.71092 10.6636Z" fill="url(#paint3_linear)"/>
<path opacity="0.4" d="M4.36615 8.39436C5.28634 7.65258 7.16615 6.14084 7.3239 6.02816L7.66192 5.6338L8.08446 5.46478L8.84502 6.02816L12.2253 8.87323L11.9718 13.5211L12.2253 17.1549L10.1971 21.7746L7.85911 23.4084L7.3239 22.2535L5.43657 20.5634L3.71826 17.8028L4.08446 16.7606V11.5211L4.36615 8.39436Z" fill="url(#paint4_linear)"/>
<path opacity="0.48" d="M7.43663 1.662C7.4141 1.63946 6.71363 1.18313 6.36621 0.957773C6.41128 0.912703 7.34274 0.356834 7.80283 0.0845337L7.69015 1.74651C7.61504 1.72773 7.45917 1.68453 7.43663 1.662Z" fill="url(#paint5_linear)"/>
<path opacity="0.48" d="M7.77466 1.2676L7.831 0.112671C7.87607 0.112671 10.216 1.52112 11.3803 2.22535L11.4085 2.30985C11.2676 2.64788 10.9803 3.32957 10.9578 3.35211C10.9296 3.38028 10.338 5.74647 10.2535 6C10.1859 6.20281 9.60564 6.30985 9.32395 6.33802L8.92959 6L8.08452 5.40845V4.9014L8.22536 4.02816L7.77466 1.99999V1.2676Z" fill="url(#paint6_linear)"/>
<path opacity="0.48" d="M11.4085 2.42249L11.4931 2.36615L13.9438 5.46474L13.7184 6.08446L13.5776 6.53516C13.6715 6.8638 13.848 7.53235 13.8029 7.57742C13.7578 7.62249 12.77 8.42249 12.2818 8.81685L11.7184 8.39432L10.8733 7.63376L10.0283 6.87319L9.97192 6.76052L10.2536 6.1408L10.3663 5.88728L10.7325 4.42249L10.9578 3.54925L11.4085 2.42249Z" fill="url(#paint7_linear)"/>
<path opacity="0.48" d="M14.676 7.97188L15.4084 8.53526L15.7464 14.0282L15.9436 17.6057H14.1689L12.3098 17.0423L12.2253 16.6761L12.1689 15.2395V14.9296L12.2253 14.4226L12.0281 13.5212L12.2816 8.9578L12.4224 8.84512L12.7041 8.53526L13.8591 7.57751L14.676 7.97188Z" fill="url(#paint8_linear)"/>
<path opacity="0.48" d="M14.1406 17.662H15.9153L13.5773 23.0705L13.0421 24.1972L12.535 23.8592C11.8026 23.1644 10.2815 21.8423 10.2815 21.7747C10.2815 21.7071 10.6759 20.7982 10.8449 20.3944L12.1125 17.5212C12.1688 17.4085 12.2871 17.1775 12.3097 17.155C12.3322 17.1324 13.5397 17.4836 14.1406 17.662Z" fill="url(#paint9_linear)"/>
<path opacity="0.48" d="M7.74634 25.3521L7.85901 23.4648L10.1407 21.8592L10.2815 21.9155L11.69 23.155L12.5069 23.9155L13.0139 24.2254L11.859 25.5775L8.76042 28.7888L7.85901 26.8451L7.74634 25.3521Z" fill="url(#paint10_linear)"/>
<path opacity="0.48" d="M13.7183 6.39439L13.9718 5.54932L15.3802 8.42256L14.7605 7.94368L13.8591 7.49298L13.7183 6.39439Z" fill="url(#paint11_linear)"/>
<path opacity="0.48" d="M7.60547 27.662V28.2535L8.64772 28.7324L8.08434 27.5211L7.83082 26.9296L7.60547 27.662Z" fill="url(#paint12_linear)"/>
<path opacity="0.48" d="M7.52127 27.5493V28.1972L5.77479 26.4507L3.09873 22.3099L1.8593 20.1972L0.253662 17.2394L1.66211 17.7465L3.63394 17.9718L5.32408 20.6197L7.23958 22.3099L7.77479 23.493C7.73723 24.0376 7.66211 25.138 7.66211 25.1831C7.66211 25.2282 7.73723 26.3099 7.77479 26.8451L7.52127 27.5493Z" fill="url(#paint13_linear)"/>
<path opacity="0.48" d="M1.80288 17.662L0.0563965 17.0705L0.788791 8.95778L1.04231 7.35214L1.18316 6.67609L2.1409 6.90144L2.28175 7.35214L4.25358 8.50707L4.00006 11.4366V16.7606L3.57752 17.8028L1.80288 17.662Z" fill="url(#paint14_linear)"/>
<path opacity="0.48" d="M2.22551 6.84505L1.21143 6.6197L1.97199 5.71829L6.31002 1.04224L7.43678 1.71829L7.71847 2.08449L8.11283 4.02815L8.00016 5.38026L7.60579 5.57745L7.29593 5.94365L4.36636 8.28167L4.22551 8.36618L2.36636 7.32393L2.22551 6.84505Z" fill="url(#paint15_linear)"/>
<path opacity="0.08" d="M12.3944 14.5915L12.2253 13.4366V12.169L12.3944 12.8451L13.1549 13.6338L13.9155 13.8028C14.1127 13.9718 14.5296 14.3324 14.6197 14.4225C14.7098 14.5127 15.446 15.2864 15.8028 15.662V17.4648H14.1408L12.5915 16.9577L12.3944 15.662V14.5915Z" fill="url(#paint16_linear)"/>
<path opacity="0.2" d="M4.73238 8.30985L7.99999 5.57745L9.40844 6.56337L12.0282 8.84506L11.831 10.4225C11.3615 10.9014 10.3944 11.8873 10.2817 12C10.1408 12.1408 9.46478 12.4507 8.39436 13.0704C7.32393 13.6901 6.59154 13.7465 6.28168 13.7465C6.03379 13.7465 4.8075 14.9671 4.22534 15.5775V11.8591L4.73238 8.30985Z" fill="url(#paint17_linear)"/>
<path opacity="0.4" fill-rule="evenodd" clip-rule="evenodd" d="M6.6474 14.2415L5.5354 13.9489V14.5634L5.68172 15.2365L6.29624 15.7339L5.91582 15.6462L5.56466 15.7632L5.91582 16.3192L6.35477 16.6411L6.96929 17.2556L7.02037 17.2751L6.83849 17.0874L6.76447 16.6534V16.2571L7.32701 16.4458L7.44544 16.5779L7.60828 16.6534L7.50465 16.4081L7.44544 16.0306L7.48985 15.5966L7.44544 15.2947L7.75632 14.8795L8.02278 14.7097L8.25964 15.0682L8.46689 15.3324L8.4965 15.5211L8.46689 15.7665V16.1439L8.43729 16.4458L8.39288 16.6534L8.55572 16.5401L8.83699 16.2571L9.2811 16.2193V16.6534L9.16267 17.0119L8.98502 17.2572L8.93963 17.2958L9.07624 17.2556L9.69077 16.5533L10.1004 16.1729L10.3346 15.6462H9.92487L9.57371 15.7339L9.92487 15.4998L10.276 15.1194L10.5101 14.5634V13.8904L9.63224 13.9489L9.07624 14.3878L8.75435 14.5634L8.84213 14.2415L8.90066 13.7733V13.1881L8.95919 12.8076L8.90066 12.515L8.49098 12.1053L8.02277 11.5493L7.49603 11.8127L6.8815 12.4565L6.96929 12.9247L6.8815 13.5977L6.99856 14.183L7.2034 14.5634L6.8815 14.4464L6.6474 14.2415Z" fill="url(#paint18_linear)"/>
<defs>
<linearGradient id="paint0_linear" x1="7.99542" y1="-0.00159764" x2="7.99542" y2="28.8452" gradientUnits="userSpaceOnUse">
<stop stop-color="#0974F2"/>
<stop offset="1" stop-color="#37CFFF"/>
</linearGradient>
<linearGradient id="paint1_linear" x1="7.99551" y1="0.111086" x2="7.99551" y2="28.7325" gradientUnits="userSpaceOnUse">
<stop stop-color="white"/>
<stop offset="1" stop-color="#37CFFF"/>
</linearGradient>
<linearGradient id="paint2_linear" x1="8.17992" y1="1.37062" x2="8.17992" y2="26.9296" gradientUnits="userSpaceOnUse">
<stop stop-color="#002BC1"/>
<stop offset="0.535884" stop-color="#1873DD"/>
<stop offset="1" stop-color="#37CFFF"/>
</linearGradient>
<linearGradient id="paint3_linear" x1="7.99655" y1="10.0835" x2="7.99655" y2="28.0564" gradientUnits="userSpaceOnUse">
<stop stop-color="#002BC1" stop-opacity="0"/>
<stop offset="0.535884" stop-color="#1873DD" stop-opacity="0"/>
<stop offset="1" stop-color="#0BB5FE"/>
</linearGradient>
<linearGradient id="paint4_linear" x1="7.96935" y1="5.46379" x2="7.96935" y2="23.4085" gradientUnits="userSpaceOnUse">
<stop stop-color="#0BB5FE"/>
<stop offset="1" stop-color="#002BC1"/>
</linearGradient>
<linearGradient id="paint5_linear" x1="6.70424" y1="0.169041" x2="7.69015" y2="2.0282" gradientUnits="userSpaceOnUse">
<stop stop-color="#002BC1"/>
<stop offset="1" stop-color="#37CFFF"/>
</linearGradient>
<linearGradient id="paint6_linear" x1="9.59156" y1="0.112671" x2="9.59156" y2="6.33802" gradientUnits="userSpaceOnUse">
<stop stop-color="#4B65C5"/>
<stop offset="1" stop-color="#0BB5FE"/>
</linearGradient>
<linearGradient id="paint7_linear" x1="11.9578" y1="2.36615" x2="11.9578" y2="8.81685" gradientUnits="userSpaceOnUse">
<stop stop-color="#4B65C5"/>
<stop offset="1" stop-color="#0BB5FE"/>
</linearGradient>
<linearGradient id="paint8_linear" x1="13.0985" y1="10.3662" x2="15.4647" y2="18.1127" gradientUnits="userSpaceOnUse">
<stop stop-color="#002BC1"/>
<stop offset="1" stop-color="#0BB5FE"/>
</linearGradient>
<linearGradient id="paint9_linear" x1="12.3097" y1="20.0845" x2="14.0561" y2="24.4789" gradientUnits="userSpaceOnUse">
<stop stop-color="#002BC1"/>
<stop offset="1" stop-color="#0BB5FE"/>
</linearGradient>
<linearGradient id="paint10_linear" x1="10.3801" y1="21.8592" x2="10.3801" y2="28.7888" gradientUnits="userSpaceOnUse">
<stop offset="0.354167" stop-color="#002BC1"/>
<stop offset="1" stop-color="#0BB5FE"/>
</linearGradient>
<linearGradient id="paint11_linear" x1="14.5492" y1="5.54932" x2="14.5492" y2="8.42256" gradientUnits="userSpaceOnUse">
<stop stop-color="#4B65C5"/>
<stop offset="1" stop-color="#0BB5FE"/>
</linearGradient>
<linearGradient id="paint12_linear" x1="8.1266" y1="26.9296" x2="8.1266" y2="28.7324" gradientUnits="userSpaceOnUse">
<stop offset="0.432292" stop-color="#002BC1"/>
<stop offset="1" stop-color="#0BB5FE"/>
</linearGradient>
<linearGradient id="paint13_linear" x1="4.00014" y1="20.7887" x2="3.57761" y2="26.4789" gradientUnits="userSpaceOnUse">
<stop stop-color="#002BC1"/>
<stop offset="1" stop-color="#0BB5FE"/>
</linearGradient>
<linearGradient id="paint14_linear" x1="4.28175" y1="8.70426" x2="0.225411" y2="17.4648" gradientUnits="userSpaceOnUse">
<stop stop-color="#002BC1"/>
<stop offset="1" stop-color="#0BB5FE"/>
</linearGradient>
<linearGradient id="paint15_linear" x1="4.66213" y1="1.04224" x2="4.66213" y2="8.36618" gradientUnits="userSpaceOnUse">
<stop stop-color="#4B65C5"/>
<stop offset="1" stop-color="#0BB5FE"/>
</linearGradient>
<linearGradient id="paint16_linear" x1="14.0141" y1="12.169" x2="14.0141" y2="17.4648" gradientUnits="userSpaceOnUse">
<stop stop-color="white"/>
<stop offset="1" stop-color="white" stop-opacity="0"/>
</linearGradient>
<linearGradient id="paint17_linear" x1="8.12675" y1="5.57745" x2="8.56337" y2="13.7465" gradientUnits="userSpaceOnUse">
<stop stop-color="white"/>
<stop offset="1" stop-color="white" stop-opacity="0"/>
</linearGradient>
<linearGradient id="paint18_linear" x1="8.02277" y1="11.5493" x2="8.02277" y2="17.8116" gradientUnits="userSpaceOnUse">
<stop stop-color="#37CFFF"/>
<stop offset="1" stop-color="white" stop-opacity="0.27"/>
</linearGradient>
</defs>
</svg>
