<svg width="9" height="9" viewBox="0 0 9 9" fill="none" xmlns="http://www.w3.org/2000/svg">
<path d="M4.5 6.18378C4.42541 6.18378 4.35387 6.15415 4.30113 6.1014C4.24838 6.04866 4.21875 5.97712 4.21875 5.90253V2.90253C4.21875 2.82793 4.24838 2.7564 4.30113 2.70365C4.35387 2.65091 4.42541 2.62128 4.5 2.62128C4.57459 2.62128 4.64613 2.65091 4.69887 2.70365C4.75162 2.7564 4.78125 2.82793 4.78125 2.90253V5.90253C4.78125 5.97712 4.75162 6.04866 4.69887 6.1014C4.64613 6.15415 4.57459 6.18378 4.5 6.18378Z" fill="#D1CCCD"/>
<path d="M5.9998 4.68375H2.9998C2.93129 4.6758 2.86808 4.64294 2.8222 4.59144C2.77633 4.53993 2.75098 4.47335 2.75098 4.40437C2.75098 4.3354 2.77633 4.26882 2.8222 4.21731C2.86808 4.16581 2.93129 4.13295 2.9998 4.125H5.9998C6.0744 4.125 6.14593 4.15463 6.19868 4.20738C6.25142 4.26012 6.28105 4.33166 6.28105 4.40625C6.28105 4.48084 6.25142 4.55238 6.19868 4.60512C6.14593 4.65787 6.0744 4.6875 5.9998 4.6875V4.68375Z" fill="#D1CCCD"/>
<path d="M4.50002 8.03999C4.45003 8.04037 4.40084 8.02743 4.35752 8.00249L1.45127 6.32624C1.40934 6.30075 1.37459 6.26499 1.35031 6.22234C1.32604 6.17969 1.31303 6.13156 1.31252 6.08249V2.72624C1.31191 2.67695 1.32445 2.62838 1.34883 2.58554C1.37322 2.5427 1.40858 2.50713 1.45127 2.48249L4.35752 0.802488C4.40051 0.778514 4.44892 0.76593 4.49815 0.76593C4.54737 0.76593 4.59578 0.778514 4.63877 0.802488L7.54502 2.48249C7.58868 2.50633 7.62501 2.54163 7.65012 2.58457C7.67523 2.62752 7.68816 2.6765 7.68752 2.72624V6.10124C7.68699 6.15074 7.67356 6.19926 7.64858 6.242C7.62359 6.28474 7.5879 6.32024 7.54502 6.34499L4.63877 8.02124C4.59512 8.04012 4.54712 8.04661 4.50002 8.03999ZM1.87502 5.91749L4.50002 7.41749L7.12502 5.91749V2.88749L4.50002 1.38749L1.87502 2.88749V5.91749Z" fill="#D1CCCD"/>
</svg>
