<svg width="24" height="24" viewBox="0 0 24 24" fill="none" xmlns="http://www.w3.org/2000/svg">
<path d="M16.4099 18.14C16.2827 18.1383 16.158 18.1055 16.0464 18.0445C15.9349 17.9835 15.8399 17.8961 15.7699 17.79C15.6763 17.6248 15.6481 17.4304 15.6906 17.2454C15.7332 17.0603 15.8435 16.8978 15.9999 16.79C17.342 15.926 18.3684 14.6507 18.9254 13.1548C19.4824 11.6589 19.54 10.0229 19.0897 8.4915C18.6395 6.96011 17.7054 5.61567 16.4274 4.65934C15.1494 3.703 13.5961 3.18617 11.9999 3.18617C10.4036 3.18617 8.85033 3.703 7.57231 4.65934C6.29429 5.61567 5.36027 6.96011 4.90999 8.4915C4.45971 10.0229 4.51737 11.6589 5.07435 13.1548C5.63133 14.6507 6.65769 15.926 7.99986 16.79C8.11265 16.914 8.18068 17.0721 8.19311 17.2392C8.20553 17.4063 8.16163 17.5728 8.06841 17.712C7.9752 17.8513 7.83803 17.9553 7.67879 18.0075C7.51956 18.0597 7.34743 18.0571 7.18986 18C5.57483 16.961 4.33967 15.4269 3.66923 13.6273C2.99878 11.8277 2.92909 9.85944 3.47059 8.01695C4.01209 6.17447 5.13566 4.55686 6.67317 3.4062C8.21068 2.25553 10.0795 1.63367 11.9999 1.63367C13.9203 1.63367 15.7891 2.25553 17.3266 3.4062C18.8641 4.55686 19.9876 6.17447 20.5291 8.01695C21.0706 9.85944 21.0009 11.8277 20.3305 13.6273C19.6601 15.4269 18.4249 16.961 16.8099 18C16.6928 18.0842 16.5539 18.1328 16.4099 18.14Z" fill="#D1CCCC"/>
<path d="M16.4098 22.37H7.58984C7.39093 22.37 7.20017 22.291 7.05951 22.1503C6.91886 22.0097 6.83984 21.8189 6.83984 21.62V17.39C6.83984 17.1911 6.91886 17.0003 7.05951 16.8597C7.20017 16.719 7.39093 16.64 7.58984 16.64C7.78876 16.64 7.97952 16.719 8.12017 16.8597C8.26083 17.0003 8.33984 17.1911 8.33984 17.39V20.87H15.6598V17.39C15.6598 17.1911 15.7389 17.0003 15.8795 16.8597C16.0202 16.719 16.2109 16.64 16.4098 16.64C16.6088 16.64 16.7995 16.719 16.9402 16.8597C17.0808 17.0003 17.1598 17.1911 17.1598 17.39V21.62C17.1598 21.8189 17.0808 22.0097 16.9402 22.1503C16.7995 22.291 16.6088 22.37 16.4098 22.37Z" fill="#D1CCCC"/>
<path d="M9.15967 14.55C8.96076 14.55 8.76999 14.471 8.62934 14.3303C8.48869 14.1897 8.40967 13.9989 8.40967 13.8V10.2C8.40967 10.0011 8.48869 9.81033 8.62934 9.66968C8.76999 9.52903 8.96076 9.45001 9.15967 9.45001C9.35858 9.45001 9.54935 9.52903 9.69 9.66968C9.83065 9.81033 9.90967 10.0011 9.90967 10.2V13.8C9.90708 13.9981 9.82723 14.1874 9.68713 14.3275C9.54704 14.4676 9.35777 14.5474 9.15967 14.55Z" fill="#D1CCCC"/>
<path d="M14.5601 14.55C14.362 14.5474 14.1727 14.4676 14.0326 14.3275C13.8925 14.1874 13.8126 13.9981 13.8101 13.8V10.2C13.8101 10.0011 13.8891 9.81033 14.0297 9.66968C14.1704 9.52903 14.3611 9.45001 14.5601 9.45001C14.759 9.45001 14.9497 9.52903 15.0904 9.66968C15.231 9.81033 15.3101 10.0011 15.3101 10.2V13.8C15.3101 13.9989 15.231 14.1897 15.0904 14.3303C14.9497 14.471 14.759 14.55 14.5601 14.55Z" fill="#D1CCCC"/>
<path d="M10.5801 22.39C10.382 22.3874 10.1927 22.3076 10.0526 22.1675C9.91252 22.0274 9.83267 21.8381 9.83008 21.64V19.51C9.83008 19.3111 9.9091 19.1203 10.0497 18.9797C10.1904 18.839 10.3812 18.76 10.5801 18.76C10.779 18.76 10.9698 18.839 11.1104 18.9797C11.2511 19.1203 11.3301 19.3111 11.3301 19.51V21.64C11.3301 21.8389 11.2511 22.0297 11.1104 22.1703C10.9698 22.311 10.779 22.39 10.5801 22.39Z" fill="#D1CCCC"/>
<path d="M13.4199 22.39C13.221 22.39 13.0302 22.311 12.8896 22.1703C12.7489 22.0297 12.6699 21.8389 12.6699 21.64V19.51C12.6699 19.3111 12.7489 19.1203 12.8896 18.9797C13.0302 18.839 13.221 18.76 13.4199 18.76C13.6188 18.76 13.8096 18.839 13.9503 18.9797C14.0909 19.1203 14.1699 19.3111 14.1699 19.51V21.64C14.1673 21.8381 14.0875 22.0274 13.9474 22.1675C13.8073 22.3076 13.618 22.3874 13.4199 22.39Z" fill="#D1CCCC"/>
</svg>
