<svg width="8" height="10" viewBox="0 0 8 10" fill="none" xmlns="http://www.w3.org/2000/svg">
<g clip-path="url(#clip0)">
<path d="M6.75818 1.72283C6.01477 0.977635 5.02473 0.56778 3.97258 0.56778C1.80088 0.56778 0.0337111 2.33495 0.0337111 4.50665C0.0337111 5.20039 0.214686 5.87816 0.558894 6.47609L0 8.5165L2.08831 7.96825C2.66318 8.28229 3.31078 8.4473 3.97081 8.4473H3.97258C6.14251 8.4473 7.94872 6.68013 7.94872 4.50843C7.94872 3.45629 7.5016 2.46802 6.75818 1.72283ZM3.97258 7.78373C3.38353 7.78373 2.80689 7.62582 2.30477 7.32774L2.1859 7.25677L0.947459 7.58146L1.27747 6.37318L1.1994 6.24898C0.871165 5.72735 0.699061 5.12587 0.699061 4.50665C0.699061 2.70222 2.16815 1.23313 3.97436 1.23313C4.84907 1.23313 5.67056 1.57379 6.288 2.19301C6.90545 2.81223 7.28514 3.63371 7.28337 4.50843C7.28337 6.31463 5.77701 7.78373 3.97258 7.78373ZM5.76814 5.33169C5.67056 5.28201 5.18618 5.04426 5.0957 5.01232C5.00521 4.97861 4.93956 4.96264 4.87391 5.062C4.80827 5.16136 4.62019 5.38137 4.56164 5.44879C4.50487 5.51444 4.44631 5.52331 4.34873 5.47363C3.77032 5.18442 3.39063 4.95732 3.00916 4.30261C2.90802 4.12873 3.11029 4.14115 3.29836 3.76501C3.3303 3.69936 3.31433 3.64259 3.28949 3.59291C3.26465 3.54323 3.06771 3.05885 2.98609 2.86191C2.90625 2.67029 2.82463 2.6969 2.76431 2.69335C2.70753 2.6898 2.64188 2.6898 2.57624 2.6898C2.51059 2.6898 2.40413 2.71464 2.31364 2.81223C2.22316 2.91159 1.96944 3.14934 1.96944 3.63371C1.96944 4.11809 2.32252 4.5865 2.37042 4.65214C2.4201 4.71779 3.06416 5.71138 4.05243 6.13898C4.67697 6.40867 4.92182 6.43173 5.23409 6.3856C5.42394 6.35721 5.81605 6.14785 5.89767 5.9172C5.97928 5.68654 5.97928 5.4896 5.95444 5.44879C5.93138 5.40443 5.86573 5.37959 5.76814 5.33169Z" fill="white"/>
</g>
<defs>
<clipPath id="clip0">
<rect width="7.94872" height="9.08425" fill="white"/>
</clipPath>
</defs>
</svg>
